<svg id="Capa_1" enable-background="new 0 0 512 512" height="512" viewBox="0 0 512 512" width="512" xmlns="http://www.w3.org/2000/svg"><path d="m434.857 99.258-35.439-15.317-54.561 66.059v212l60.571 68.55 29.429-17.807c.747-1.802 1.143-3.75 1.143-5.742v-302.001c0-1.992-.396-3.94-1.143-5.742z" fill="#6b77e8"/><path d="m109.656 82.728-32.513 16.53c-.747 1.802-1.143 3.75-1.143 5.742v302c0 1.992.396 3.94 1.143 5.742l29.429 17.807 60.571-61.518v-221.843z" fill="#979fef"/><path d="m167.223 387.964-30.081-.081-60 24.858c.747 1.802 1.846 3.457 3.252 4.863l90 90c1.406 1.406 3.104 2.547 4.905 3.294l42.701-36.898z" fill="#6b77e8"/><path d="m374.857 387.884-42.857 3.127-37.45 90.417 42.25 29.572c1.802-.747 3.399-1.988 4.806-3.395l90-90c1.406-1.406 2.505-3.062 3.252-4.863z" fill="#615ad3"/><path d="m336.8 511c-1.8.901-3.7 1-5.8 1h-150c-2.1 0-3.9-.199-5.7-1.1l24.901-60.101 20.7-30h77.699l13.2 30z" fill="#979fef"/><path d="m311.8 450.799 25 60.201c-1.8.901-3.7 1-5.8 1h-75v-91.201h42.6z" fill="#6b77e8"/><path d="m431.605 94.395-90-90c-1.406-1.407-3.103-2.648-4.905-3.395l-40.97 26.723 18.321 65.587 60.807 30.807 60-24.858c-.748-1.803-1.846-3.458-3.253-4.864z" fill="#615ad3"/><path d="m175.3 1.2c-1.802.747-3.499 1.788-4.905 3.195l-90 90c-1.406 1.406-2.505 3.062-3.252 4.863l60 24.858h30l50.308-93.545z" fill="#6b77e8"/><path d="m336.7 1-24.9 60.199-13.2 30h-81l-17.399-30-24.901-59.999c1.8-.899 3.6-1.2 5.7-1.2h150c2.1 0 3.9.101 5.7 1z" fill="#979fef"/><path d="m298.6 91.199h-42.6v-91.199h75c2.1 0 3.9.101 5.7 1l-24.9 60.199z" fill="#6b77e8"/><path d="m376 129.899v252.201c0 2.1-.3 3.9-1.199 5.7-.601 1.8-1.8 3.6-3.301 4.799l-54.899 54.901c-1.201 1.5-3.001 2.701-4.801 3.3-1.8.9-3.6 1.2-5.7 1.2h-100.199c-2.1 0-3.9-.3-5.7-1.201-1.8-.599-3.6-1.8-4.801-3.3l-54.899-54.901c-1.501-1.199-2.701-2.999-3.301-4.799-.899-1.8-1.199-3.6-1.199-5.7v-252.2c0-2.098.3-3.898 1.199-5.698.601-1.802 1.8-3.602 3.301-4.801l54.899-54.901c1.201-1.5 3.001-2.699 4.801-3.3 1.799-.899 3.599-1.199 5.7-1.199h100.199c2.1 0 3.9.3 5.7 1.199 1.8.601 3.6 1.8 4.801 3.3l54.899 54.901c1.501 1.199 2.701 2.999 3.301 4.801.899 1.799 1.199 3.599 1.199 5.698z" fill="#b9b6ec"/><path d="m376 129.899v252.201c0 2.1-.3 3.9-1.199 5.7-.601 1.8-1.8 3.6-3.301 4.799l-54.899 54.901c-1.201 1.5-3.001 2.701-4.801 3.3-1.8.9-3.6 1.2-5.7 1.2h-50.1v-392h50.1c2.1 0 3.9.3 5.7 1.199 1.8.601 3.6 1.8 4.801 3.3l54.899 54.901c1.501 1.199 2.701 2.999 3.301 4.801.899 1.799 1.199 3.599 1.199 5.698z" fill="#979fef"/></svg>