<?xml version="1.0" encoding="iso-8859-1"?>
<!-- Generator: Adobe Illustrator 19.0.0, SVG Export Plug-In . SVG Version: 6.00 Build 0)  -->
<svg version="1.1" id="Capa_1" xmlns="http://www.w3.org/2000/svg" xmlns:xlink="http://www.w3.org/1999/xlink" x="0px" y="0px"
	 viewBox="0 0 512 512" style="enable-background:new 0 0 512 512;" xml:space="preserve" fill="white">
<g>
	<g>
		<polygon points="61,114.272 61,397.728 121,367.728 121,144.272 		"/>
	</g>
</g>
<g>
	<g>
		<polygon points="391,144.272 391,367.728 451,397.728 451,114.272 		"/>
	</g>
</g>
<g>
	<g>
		<polygon points="133.041,395.252 73.041,425.252 147.748,499.959 177.748,439.959 		"/>
	</g>
</g>
<g>
	<g>
		<polygon points="378.959,395.252 334.252,439.959 364.252,499.959 438.959,425.252 		"/>
	</g>
</g>
<g>
	<g>
		<polygon points="147.748,12.041 73.041,86.748 133.041,116.748 177.748,72.041 		"/>
	</g>
</g>
<g>
	<g>
		<polygon points="364.254,12.043 334.252,72.041 378.959,116.748 438.959,86.748 		"/>
	</g>
</g>
<g>
	<g>
		<polygon points="306.742,452 205.258,452 175.263,512 336.737,512 		"/>
	</g>
</g>
<g>
	<g>
		<polygon points="175.261,0 205.258,60 306.742,60 336.739,0 		"/>
	</g>
</g>
<g>
	<g>
		<polygon points="309.789,90 202.211,90 151,141.211 151,370.789 202.211,422 309.789,422 361,370.789 361,141.211 		"/>
	</g>
</g>
<g>
</g>
<g>
</g>
<g>
</g>
<g>
</g>
<g>
</g>
<g>
</g>
<g>
</g>
<g>
</g>
<g>
</g>
<g>
</g>
<g>
</g>
<g>
</g>
<g>
</g>
<g>
</g>
<g>
</g>
</svg>
