<?xml version="1.0" encoding="iso-8859-1"?>
<!-- Generator: Adobe Illustrator 19.0.0, SVG Export Plug-In . SVG Version: 6.00 Build 0)  -->
<svg version="1.1" id="Capa_1" xmlns="http://www.w3.org/2000/svg" xmlns:xlink="http://www.w3.org/1999/xlink" x="0px" y="0px"
	 viewBox="0 0 512 512" style="enable-background:new 0 0 512 512;" xml:space="preserve">
<path style="fill:#00A621;" d="M324.866,137.438v237.125l98.068,26.407c9.018-21.509,14.007-45.126,14.007-69.91V180.941
	c0-24.784-4.988-48.401-14.007-69.91L324.866,137.438z"/>
<g>
	<path style="fill:#39C453;" d="M344.882,157.454l78.052-46.423C395.59,45.813,331.147,0,256,0l0,0l-20.016,106.532L344.882,157.454
		z"/>
	<path style="fill:#39C453;" d="M235.984,405.468L256,512l0,0c75.147,0,139.589-45.813,166.934-111.031l-78.052-46.423
		L235.984,405.468z"/>
</g>
<polygon style="fill:#87E694;" points="256,86.516 235.984,256 256,425.484 344.882,354.546 344.882,157.454 "/>
<polygon style="fill:#D2F5D7;" points="147.102,137.438 147.102,374.562 256,425.484 256,86.516 "/>
<g>
	<path style="fill:#87E694;" d="M167.118,354.546l-43.451-7.799l-34.601,54.222C116.41,466.187,180.853,512,256,512l0,0v-86.516
		L167.118,354.546z"/>
	<path style="fill:#87E694;" d="M256,86.516V0l0,0C180.853,0,116.41,45.813,89.065,111.031l25.268,61.302l52.785-14.88L256,86.516z"
		/>
</g>
<path style="fill:#39C453;" d="M167.118,157.454l-78.052-46.423c-9.018,21.509-14.007,45.126-14.007,69.91v150.118
	c0,24.784,4.988,48.401,14.007,69.91l78.052-46.423V157.454z"/>
<g>
</g>
<g>
</g>
<g>
</g>
<g>
</g>
<g>
</g>
<g>
</g>
<g>
</g>
<g>
</g>
<g>
</g>
<g>
</g>
<g>
</g>
<g>
</g>
<g>
</g>
<g>
</g>
<g>
</g>
</svg>
