<?xml version="1.0" encoding="iso-8859-1"?>
<!-- Generator: Adobe Illustrator 19.0.0, SVG Export Plug-In . SVG Version: 6.00 Build 0)  -->
<svg version="1.1" id="Layer_1" xmlns="http://www.w3.org/2000/svg" xmlns:xlink="http://www.w3.org/1999/xlink" x="0px" y="0px"
	 viewBox="0 0 512 512" style="enable-background:new 0 0 512 512;" xml:space="preserve">
<path style="fill:#FFB01C;" d="M261.991,512h-11.982L81,385.51V126.491L250.009,0h11.982L431,126.491V385.51L261.991,512z"/>
<g>
	<polygon style="fill:#FF9400;" points="271,6.742 271,118.791 256,145.209 256,366.791 271,393.209 271,505.258 431,385.51 
		431,126.491 	"/>
	<polygon style="fill:#FF9400;" points="175.4,171.271 241,118.791 241,6.742 95.706,115.484 	"/>
	<polygon style="fill:#FF9400;" points="191,197.209 191,314.791 256,366.791 321,314.791 321,197.209 256,145.209 	"/>
	<polygon style="fill:#FF9400;" points="241,393.209 175.4,340.73 95.706,396.516 241,505.258 	"/>
	<polygon style="fill:#FF9400;" points="161,314.19 161,197.81 81,141.809 81,370.19 	"/>
</g>
<g>
	<polygon style="fill:#FF663F;" points="336.6,171.271 271,118.791 271,6.742 416.294,115.484 	"/>
	<polygon style="fill:#FF663F;" points="271,393.209 336.6,340.73 416.294,396.516 271,505.258 	"/>
	<polygon style="fill:#FF663F;" points="351,314.19 351,197.81 431,141.809 431,370.19 	"/>
	<polygon style="fill:#FF663F;" points="256,145.209 256,366.791 321,314.791 321,197.209 	"/>
</g>
<g>
</g>
<g>
</g>
<g>
</g>
<g>
</g>
<g>
</g>
<g>
</g>
<g>
</g>
<g>
</g>
<g>
</g>
<g>
</g>
<g>
</g>
<g>
</g>
<g>
</g>
<g>
</g>
<g>
</g>
</svg>
