<?xml version="1.0" encoding="iso-8859-1"?>
<!-- Generator: Adobe Illustrator 19.0.0, SVG Export Plug-In . SVG Version: 6.00 Build 0)  -->
<svg version="1.1" id="Capa_1" xmlns="http://www.w3.org/2000/svg" xmlns:xlink="http://www.w3.org/1999/xlink" x="0px" y="0px"
	 viewBox="0 0 512 512" style="enable-background:new 0 0 512 512;" xml:space="preserve">
<path style="fill:#FF6A00;" d="M419.113,65.092l-157.046-64c-3.562-1.451-7.552-1.457-11.118-0.013l-158.031,64
	c-5.576,2.26-9.225,7.674-9.225,13.69v354.462c0,6.016,3.649,11.43,9.226,13.689l158.031,64c1.778,0.72,3.661,1.08,5.543,1.08
	c1.893,0,3.788-0.364,5.574-1.092l157.046-64c5.56-2.266,9.195-7.672,9.195-13.677V78.77
	C428.308,72.764,424.673,67.358,419.113,65.092z"/>
<path style="fill:#672D56;" d="M419.113,65.092l-157.046-64c-3.562-1.451-7.552-1.457-11.118-0.013l-158.031,64
	c-5.576,2.26-9.225,7.674-9.225,13.69v354.462c0,6.016,3.649,11.43,9.226,13.689l158.031,64c1.778,0.72,3.661,1.08,5.543,1.08
	c1.893,0,3.788-0.364,5.574-1.092l157.046-64c5.56-2.266,9.195-7.672,9.195-13.677V78.77
	C428.308,72.764,424.673,67.358,419.113,65.092z"/>
<path style="fill:#983263;" d="M256.437,0.003c-1.865,0.007-3.729,0.363-5.489,1.076l-158.031,64
	c-5.576,2.26-9.225,7.674-9.225,13.69v354.462c0,6.016,3.649,11.43,9.226,13.689l158.031,64c1.76,0.713,3.624,1.07,5.489,1.077
	V0.003H256.437z"/>
<g>
	<path style="fill:#C9366B;" d="M428.308,78.77c0-6.005-3.635-11.412-9.195-13.677l-7.285-2.969l-85.298,57.348
		c-6.769,4.551-8.567,13.728-4.016,20.497c2.851,4.241,7.518,6.531,12.27,6.531c2.834,0,5.698-0.814,8.226-2.515l85.298-57.348
		V78.77z"/>
	<path style="fill:#C9366B;" d="M343.01,368.016c-6.768-4.55-15.946-2.754-20.497,4.016c-4.551,6.769-2.753,15.946,4.016,20.497
		l85.298,57.348l7.286-2.97c5.559-2.265,9.194-7.671,9.194-13.676v-7.867L343.01,368.016z"/>
</g>
<g>
	<path style="fill:#EA4287;" d="M168.977,367.899l-85.284,57.475v7.857c0,6.016,3.649,11.43,9.226,13.689l7.282,2.949l85.284-57.474
		c6.764-4.559,8.552-13.737,3.994-20.502C184.921,365.13,175.741,363.341,168.977,367.899z"/>
	<path style="fill:#EA4287;" d="M83.692,78.77v7.857l85.284,57.474c2.531,1.705,5.401,2.524,8.24,2.524
		c4.747,0,9.409-2.284,12.261-6.517c4.559-6.764,2.77-15.943-3.994-20.502l-85.284-57.474l-7.282,2.949
		C87.341,67.339,83.692,72.754,83.692,78.77z"/>
</g>
<path style="fill:#C9366B;" d="M241.674,39.385v0.003l-0.043,60.392c0,0.293,0.027,0.581,0.043,0.87v310.7
	c-0.017,0.289-0.043,0.577-0.043,0.871l0.043,53.881v25.22h0.021l0.013,15.854l9.242,3.743c1.778,0.72,3.661,1.08,5.543,1.08
	c1.893,0,3.788-0.364,5.574-1.092l9.179-3.741l-0.077-94.969V99.801l0.069-94.972l-9.171-3.737
	c-3.562-1.451-7.552-1.457-11.118-0.013l-9.25,3.746L241.674,39.385z"/>
<path style="fill:#EA4287;" d="M256.437,0.003c-1.865,0.007-3.729,0.363-5.489,1.076l-9.25,3.746l-0.024,34.559v0.003l-0.043,60.392
	c0,0.293,0.027,0.581,0.043,0.87v310.7c-0.017,0.289-0.043,0.577-0.043,0.871l0.043,53.881v25.22h0.021l0.013,15.854l9.242,3.743
	c1.76,0.713,3.624,1.07,5.489,1.077V0.003H256.437z"/>
<path style="fill:#983263;" d="M340.343,118.052l-78.37-31.938c-3.561-1.451-7.551-1.456-11.117-0.013l-79.169,32.062
	c-5.576,2.259-9.225,7.673-9.225,13.689v248.294c0,6.016,3.649,11.43,9.225,13.689l79.169,32.062c1.778,0.72,3.661,1.08,5.543,1.08
	c1.893,0,3.787-0.364,5.574-1.092l78.37-31.938c5.559-2.266,9.195-7.672,9.195-13.677V131.728
	C349.539,125.724,345.903,120.316,340.343,118.052z"/>
<path style="fill:#C9366B;" d="M256.437,85.023c-1.895-0.005-3.792,0.353-5.582,1.078l-79.169,32.062
	c-5.576,2.259-9.225,7.673-9.225,13.689v248.294c0,6.016,3.649,11.43,9.225,13.689l79.169,32.062c1.778,0.72,3.661,1.08,5.543,1.08
	c0.013,0,0.026-0.002,0.038-0.002V85.023z"/>
<g>
</g>
<g>
</g>
<g>
</g>
<g>
</g>
<g>
</g>
<g>
</g>
<g>
</g>
<g>
</g>
<g>
</g>
<g>
</g>
<g>
</g>
<g>
</g>
<g>
</g>
<g>
</g>
<g>
</g>
</svg>
