<?xml version="1.0" encoding="iso-8859-1"?>
<!-- Generator: Adobe Illustrator 19.0.0, SVG Export Plug-In . SVG Version: 6.00 Build 0)  -->
<svg version="1.1" id="Capa_1" xmlns="http://www.w3.org/2000/svg" xmlns:xlink="http://www.w3.org/1999/xlink" x="0px" y="0px"
	 viewBox="0 0 512 512" style="enable-background:new 0 0 512 512;" xml:space="preserve">
<polygon style="fill:#FD4E26;" points="391,128.699 391,383.299 322.299,452 189.701,452 121,383.299 121,128.699 189.701,60 
	322.299,60 "/>
<g>
	<polygon style="fill:#FD3018;" points="391,128.699 391,383.299 322.299,452 256,452 256,60 322.299,60 	"/>
	<path style="fill:#FD3018;" d="M356.8,30l-19.801,38.099L316,75H196l-15-4.801L152.802,21l6.599-19.2
		C161.499,0.599,163.598,0,166,0h180c2.402,0,4.501,0.599,6.599,1.8L356.8,30z"/>
</g>
<path style="fill:#C1001F;" d="M449.264,98.368l-34.358-6.962l-28.594,18.281L376,135v242l6.094,19.688l45,21.094l22.17-4.151
	c1.033-2.064,1.736-4.274,1.736-6.63V105C451,102.643,450.297,100.432,449.264,98.368z"/>
<g>
	<path style="fill:#FD3018;" d="M133.188,115.313L97.094,97.031l-34.358,1.337C61.703,100.432,61,102.643,61,105v302
		c0,2.357,0.703,4.567,1.736,6.63l25.92,6.495l33.281-15.469L136,377V135L133.188,115.313z"/>
	<path style="fill:#FD3018;" d="M357.7,483.5l-5.101,26.7c-2.098,1.199-4.197,1.8-6.599,1.8H166c-2.402,0-4.501-0.601-6.599-1.8
		l-7.5-31.5l16.802-33.301L196,437h120l20.098,3.6L357.7,483.5z"/>
</g>
<g>
	<path style="fill:#C1001F;" d="M316,75h-60V0h90c2.402,0,4.501,0.599,6.599,1.8l4.2,28.2l-19.801,38.099L316,75z"/>
	<path style="fill:#C1001F;" d="M357.7,483.5l-5.101,26.7c-2.098,1.199-4.197,1.8-6.599,1.8h-90v-75h60l20.098,3.6L357.7,483.5z"/>
	<path style="fill:#C1001F;" d="M196,75l-15-30L159.368,1.738c-1.425,0.714-2.823,1.507-3.973,2.657l-90,90
		c-1.15,1.15-1.941,2.547-2.659,3.973L136,135L196,75z"/>
	<path style="fill:#C1001F;" d="M196,437l-60-60l-73.264,36.63c0.718,1.426,1.509,2.825,2.659,3.975l90,90
		c1.15,1.15,2.549,1.943,3.973,2.657L181,467L196,437z"/>
</g>
<g>
	<path style="fill:#980017;" d="M316,75l60,60l73.264-36.632c-0.718-1.426-1.509-2.823-2.659-3.973l-90-90
		c-1.15-1.15-2.549-1.943-3.977-2.657L331,45L316,75z"/>
	<path style="fill:#980017;" d="M446.605,417.605c1.15-1.15,1.941-2.549,2.659-3.975L376,377l-60,60l15,30l21.632,43.262
		c1.425-0.714,2.823-1.507,3.973-2.657L446.605,417.605z"/>
</g>
<g>
</g>
<g>
</g>
<g>
</g>
<g>
</g>
<g>
</g>
<g>
</g>
<g>
</g>
<g>
</g>
<g>
</g>
<g>
</g>
<g>
</g>
<g>
</g>
<g>
</g>
<g>
</g>
<g>
</g>
</svg>
