<?xml version="1.0" encoding="iso-8859-1"?>
<!-- Generator: Adobe Illustrator 19.0.0, SVG Export Plug-In . SVG Version: 6.00 Build 0)  -->
<svg version="1.1" id="Capa_1" xmlns="http://www.w3.org/2000/svg" xmlns:xlink="http://www.w3.org/1999/xlink" x="0px" y="0px"
	 viewBox="0 0 512.002 512.002" style="enable-background:new 0 0 512.002 512.002;" xml:space="preserve">
<path style="fill:#FF6E23;" d="M323.462,512.002c-0.978,0-1.963-0.096-2.941-0.29c-4.94-0.983-9.063-4.367-10.99-9.019
	l-34.49-83.273c-2.333-5.634-1.043-12.12,3.269-16.432l46.622-46.622c4.312-4.313,10.8-5.601,16.432-3.269l83.263,34.489
	c4.652,1.927,8.036,6.05,9.019,10.989c0.983,4.939-0.566,10.042-4.125,13.604l-95.395,95.406
	C331.268,510.442,327.421,512.002,323.462,512.002z"/>
<g>
	<path style="fill:#FAA55F;" d="M188.54,512.002c-3.96,0-7.808-1.561-10.662-4.417l-95.395-95.406
		c-3.561-3.562-5.109-8.665-4.125-13.604c0.983-4.939,4.367-9.062,9.019-10.989l83.263-34.489c5.633-2.332,12.12-1.044,16.432,3.269
		l46.622,46.622c4.312,4.312,5.602,10.797,3.269,16.432l-34.49,83.273c-1.927,4.652-6.05,8.036-10.99,9.019
		C190.503,511.907,189.517,512.002,188.54,512.002z"/>
	<path style="fill:#FAA55F;" d="M176.405,160.053c-1.943,0-3.902-0.375-5.767-1.148l-83.263-34.489
		c-4.652-1.927-8.036-6.05-9.019-10.989c-0.983-4.939,0.566-10.042,4.125-13.604l95.395-95.406c3.561-3.562,8.667-5.11,13.604-4.126
		c4.94,0.983,9.063,4.367,10.99,9.019l34.49,83.273c2.333,5.634,1.043,12.12-3.269,16.432l-46.622,46.622
		C184.185,158.522,180.328,160.053,176.405,160.053z"/>
</g>
<path style="fill:#FF6E23;" d="M335.597,160.053c-3.923,0-7.78-1.531-10.664-4.417l-46.622-46.622
	c-4.312-4.312-5.602-10.797-3.269-16.432l34.49-83.273c1.927-4.652,6.05-8.036,10.99-9.019c4.937-0.983,10.043,0.566,13.604,4.126
	l95.395,95.406c3.56,3.562,5.109,8.665,4.125,13.604c-0.983,4.939-4.367,9.062-9.019,10.989l-83.263,34.489
	C339.499,159.678,337.539,160.053,335.597,160.053z"/>
<path style="fill:#FFC82D;" d="M418.856,416.596c-1.952,0-3.913-0.379-5.769-1.148l-83.263-34.489
	c-5.634-2.334-9.308-7.832-9.308-13.93V144.975c0-6.099,3.673-11.596,9.308-13.93l83.263-34.489
	c4.651-1.927,9.959-1.404,14.147,1.394c4.187,2.798,6.701,7.501,6.701,12.537v291.032c0,5.036-2.514,9.739-6.701,12.537
	C424.717,415.737,421.796,416.596,418.856,416.596z"/>
<g>
	<path style="fill:#FFDC50;" d="M323.462,512.002H188.54c-5.036,0-9.739-2.514-12.537-6.701c-2.798-4.188-3.321-9.494-1.394-14.148
		l34.49-83.273c2.333-5.633,7.832-9.308,13.93-9.308h65.943c6.099,0,11.597,3.674,13.93,9.308l34.49,83.273
		c1.927,4.653,1.403,9.96-1.394,14.148C333.201,509.488,328.497,512.002,323.462,512.002z"/>
	<path style="fill:#FFDC50;" d="M93.145,416.596c-2.94,0-5.861-0.859-8.379-2.541c-4.187-2.798-6.701-7.501-6.701-12.537V110.486
		c0-5.036,2.514-9.739,6.701-12.537c4.189-2.799,9.496-3.321,14.147-1.394l83.263,34.489c5.634,2.334,9.308,7.832,9.308,13.93
		v222.054c0,6.099-3.673,11.596-9.308,13.93l-83.263,34.489C97.059,416.217,95.099,416.596,93.145,416.596z"/>
	<path style="fill:#FFDC50;" d="M288.972,113.431h-65.943c-6.099,0-11.597-3.674-13.93-9.308l-34.49-83.273
		c-1.927-4.653-1.403-9.96,1.394-14.148c2.798-4.187,7.501-6.701,12.537-6.701h134.922c5.036,0,9.739,2.514,12.537,6.701
		c2.798,4.188,3.321,9.494,1.394,14.148l-34.49,83.273C300.569,109.757,295.07,113.431,288.972,113.431z"/>
</g>
<path style="fill:#FFEB8C;" d="M288.972,428.729h-65.943c-4,0-7.835-1.588-10.661-4.417l-46.622-46.622
	c-2.828-2.828-4.417-6.663-4.417-10.661V144.975c0-4,1.588-7.835,4.417-10.661l46.622-46.622c2.828-2.828,6.663-4.417,10.661-4.417
	h65.943c4,0,7.835,1.588,10.661,4.417l46.622,46.622c2.828,2.828,4.417,6.663,4.417,10.661v222.054c0,4-1.588,7.835-4.417,10.661
	l-46.622,46.622C296.806,427.141,292.971,428.729,288.972,428.729z"/>
<g>
	<path style="fill:#FFC82D;" d="M323.462,0.002h-67.464v113.429h32.974c6.099,0,11.597-3.674,13.93-9.308l34.49-83.273
		c1.927-4.653,1.403-9.96-1.394-14.148C333.201,2.516,328.497,0.002,323.462,0.002z"/>
	<path style="fill:#FFC82D;" d="M323.462,512.002h-67.464V398.572h32.974c6.099,0,11.597,3.674,13.93,9.308l34.49,83.273
		c1.927,4.653,1.403,9.96-1.394,14.148C333.201,509.488,328.497,512.002,323.462,512.002z"/>
</g>
<path style="fill:#FFDC50;" d="M299.633,87.691c-2.828-2.828-6.663-4.417-10.661-4.417h-32.974v345.455h32.974
	c4,0,7.835-1.588,10.661-4.417l46.622-46.622c2.828-2.828,4.417-6.663,4.417-10.661V144.975c0-4-1.588-7.835-4.417-10.661
	L299.633,87.691z"/>
<g>
</g>
<g>
</g>
<g>
</g>
<g>
</g>
<g>
</g>
<g>
</g>
<g>
</g>
<g>
</g>
<g>
</g>
<g>
</g>
<g>
</g>
<g>
</g>
<g>
</g>
<g>
</g>
<g>
</g>
</svg>
